<mxfile host="app.diagrams.net" modified="2020-08-23T21:57:54.694Z" agent="5.0 (X11; Linux x86_64) AppleWebKit/537.36 (KHTML, like Gecko) Chrome/83.0.4103.116 Safari/537.36" etag="dw73OY1hVE62lxG7HbJB" version="13.6.4" type="github">
  <diagram id="cyh7HynrH6s_ejPr0WxY" name="PÃ¡gina-1">
    <mxGraphModel dx="846" dy="519" grid="1" gridSize="10" guides="1" tooltips="1" connect="1" arrows="1" fold="1" page="1" pageScale="1" pageWidth="827" pageHeight="1169" math="0" shadow="0">
      <root>
        <mxCell id="0" />
        <mxCell id="1" parent="0" />
        <mxCell id="EPPNhnt_aKyvmOVJGKWz-1" value="" style="ellipse;whiteSpace=wrap;html=1;aspect=fixed;fillColor=#fff2cc;strokeColor=#d6b656;" parent="1" vertex="1">
          <mxGeometry x="280" y="80" width="80" height="80" as="geometry" />
        </mxCell>
        <mxCell id="EPPNhnt_aKyvmOVJGKWz-2" value="EntidadBase" style="text;html=1;strokeColor=none;fillColor=none;align=center;verticalAlign=middle;whiteSpace=wrap;rounded=0;" parent="1" vertex="1">
          <mxGeometry x="301" y="110" width="40" height="20" as="geometry" />
        </mxCell>
        <mxCell id="EPPNhnt_aKyvmOVJGKWz-4" value="" style="ellipse;whiteSpace=wrap;html=1;aspect=fixed;fillColor=#dae8fc;strokeColor=#6c8ebf;" parent="1" vertex="1">
          <mxGeometry x="170" y="190" width="80" height="80" as="geometry" />
        </mxCell>
        <mxCell id="EPPNhnt_aKyvmOVJGKWz-5" value="OrgUnits" style="text;html=1;strokeColor=none;fillColor=none;align=center;verticalAlign=middle;whiteSpace=wrap;rounded=0;" parent="1" vertex="1">
          <mxGeometry x="191" y="220" width="40" height="20" as="geometry" />
        </mxCell>
        <mxCell id="EPPNhnt_aKyvmOVJGKWz-6" value="" style="ellipse;whiteSpace=wrap;html=1;aspect=fixed;fillColor=#dae8fc;strokeColor=#6c8ebf;" parent="1" vertex="1">
          <mxGeometry x="280" y="190" width="80" height="80" as="geometry" />
        </mxCell>
        <mxCell id="EPPNhnt_aKyvmOVJGKWz-7" value="GrUsers" style="text;html=1;strokeColor=none;fillColor=none;align=center;verticalAlign=middle;whiteSpace=wrap;rounded=0;" parent="1" vertex="1">
          <mxGeometry x="301" y="220" width="40" height="20" as="geometry" />
        </mxCell>
        <mxCell id="EPPNhnt_aKyvmOVJGKWz-8" value="" style="ellipse;whiteSpace=wrap;html=1;aspect=fixed;fillColor=#dae8fc;strokeColor=#6c8ebf;" parent="1" vertex="1">
          <mxGeometry x="400" y="190" width="80" height="80" as="geometry" />
        </mxCell>
        <mxCell id="EPPNhnt_aKyvmOVJGKWz-9" value="Schemas" style="text;html=1;strokeColor=none;fillColor=none;align=center;verticalAlign=middle;whiteSpace=wrap;rounded=0;" parent="1" vertex="1">
          <mxGeometry x="421" y="220" width="40" height="20" as="geometry" />
        </mxCell>
        <mxCell id="EPPNhnt_aKyvmOVJGKWz-10" value="" style="ellipse;whiteSpace=wrap;html=1;aspect=fixed;fillColor=#f8cecc;strokeColor=#b85450;" parent="1" vertex="1">
          <mxGeometry x="226" y="310" width="80" height="80" as="geometry" />
        </mxCell>
        <mxCell id="EPPNhnt_aKyvmOVJGKWz-11" value="Users" style="text;html=1;strokeColor=none;fillColor=none;align=center;verticalAlign=middle;whiteSpace=wrap;rounded=0;" parent="1" vertex="1">
          <mxGeometry x="247" y="340" width="40" height="20" as="geometry" />
        </mxCell>
        <mxCell id="EPPNhnt_aKyvmOVJGKWz-12" value="" style="ellipse;whiteSpace=wrap;html=1;aspect=fixed;fillColor=#f8cecc;strokeColor=#b85450;" parent="1" vertex="1">
          <mxGeometry x="336" y="310" width="80" height="80" as="geometry" />
        </mxCell>
        <mxCell id="EPPNhnt_aKyvmOVJGKWz-13" value="Groups" style="text;html=1;strokeColor=none;fillColor=none;align=center;verticalAlign=middle;whiteSpace=wrap;rounded=0;" parent="1" vertex="1">
          <mxGeometry x="357" y="340" width="40" height="20" as="geometry" />
        </mxCell>
        <mxCell id="EPPNhnt_aKyvmOVJGKWz-14" value="" style="endArrow=classic;html=1;" parent="1" source="EPPNhnt_aKyvmOVJGKWz-1" target="EPPNhnt_aKyvmOVJGKWz-4" edge="1">
          <mxGeometry width="50" height="50" relative="1" as="geometry">
            <mxPoint x="390" y="340" as="sourcePoint" />
            <mxPoint x="440" y="290" as="targetPoint" />
          </mxGeometry>
        </mxCell>
        <mxCell id="EPPNhnt_aKyvmOVJGKWz-15" value="" style="endArrow=classic;html=1;" parent="1" source="EPPNhnt_aKyvmOVJGKWz-1" target="EPPNhnt_aKyvmOVJGKWz-6" edge="1">
          <mxGeometry width="50" height="50" relative="1" as="geometry">
            <mxPoint x="301.7157287525381" y="158.2842712474619" as="sourcePoint" />
            <mxPoint x="248.2842712474619" y="211.7157287525381" as="targetPoint" />
          </mxGeometry>
        </mxCell>
        <mxCell id="EPPNhnt_aKyvmOVJGKWz-16" value="" style="endArrow=classic;html=1;" parent="1" source="EPPNhnt_aKyvmOVJGKWz-1" target="EPPNhnt_aKyvmOVJGKWz-8" edge="1">
          <mxGeometry width="50" height="50" relative="1" as="geometry">
            <mxPoint x="330" y="170" as="sourcePoint" />
            <mxPoint x="330" y="200" as="targetPoint" />
          </mxGeometry>
        </mxCell>
        <mxCell id="EPPNhnt_aKyvmOVJGKWz-17" value="" style="endArrow=classic;html=1;" parent="1" source="EPPNhnt_aKyvmOVJGKWz-6" target="EPPNhnt_aKyvmOVJGKWz-10" edge="1">
          <mxGeometry width="50" height="50" relative="1" as="geometry">
            <mxPoint x="301.7157287525381" y="158.2842712474619" as="sourcePoint" />
            <mxPoint x="248.2842712474619" y="211.7157287525381" as="targetPoint" />
          </mxGeometry>
        </mxCell>
        <mxCell id="EPPNhnt_aKyvmOVJGKWz-18" value="" style="endArrow=classic;html=1;" parent="1" source="EPPNhnt_aKyvmOVJGKWz-6" target="EPPNhnt_aKyvmOVJGKWz-12" edge="1">
          <mxGeometry width="50" height="50" relative="1" as="geometry">
            <mxPoint x="313.71363078421723" y="276.5342877002695" as="sourcePoint" />
            <mxPoint x="292.41458709316294" y="323.5231397929715" as="targetPoint" />
          </mxGeometry>
        </mxCell>
        <mxCell id="EPPNhnt_aKyvmOVJGKWz-22" value="" style="ellipse;whiteSpace=wrap;html=1;aspect=fixed;fillColor=#e1d5e7;strokeColor=#9673a6;" parent="1" vertex="1">
          <mxGeometry x="287" y="420" width="80" height="80" as="geometry" />
        </mxCell>
        <mxCell id="EPPNhnt_aKyvmOVJGKWz-23" value="BaseComun" style="text;html=1;strokeColor=none;fillColor=none;align=center;verticalAlign=middle;whiteSpace=wrap;rounded=0;" parent="1" vertex="1">
          <mxGeometry x="306" y="450" width="40" height="20" as="geometry" />
        </mxCell>
        <mxCell id="EPPNhnt_aKyvmOVJGKWz-26" value="" style="ellipse;whiteSpace=wrap;html=1;aspect=fixed;fillColor=#d5e8d4;strokeColor=#82b366;" parent="1" vertex="1">
          <mxGeometry x="130" y="470" width="80" height="80" as="geometry" />
        </mxCell>
        <mxCell id="EPPNhnt_aKyvmOVJGKWz-27" value="Alumno" style="text;html=1;strokeColor=none;fillColor=none;align=center;verticalAlign=middle;whiteSpace=wrap;rounded=0;" parent="1" vertex="1">
          <mxGeometry x="151" y="500" width="40" height="20" as="geometry" />
        </mxCell>
        <mxCell id="EPPNhnt_aKyvmOVJGKWz-28" value="" style="ellipse;whiteSpace=wrap;html=1;aspect=fixed;fillColor=#d5e8d4;strokeColor=#82b366;" parent="1" vertex="1">
          <mxGeometry x="130" y="370" width="80" height="80" as="geometry" />
        </mxCell>
        <mxCell id="EPPNhnt_aKyvmOVJGKWz-29" value="Profesor" style="text;html=1;strokeColor=none;fillColor=none;align=center;verticalAlign=middle;whiteSpace=wrap;rounded=0;" parent="1" vertex="1">
          <mxGeometry x="151" y="400" width="40" height="20" as="geometry" />
        </mxCell>
        <mxCell id="EPPNhnt_aKyvmOVJGKWz-30" value="" style="endArrow=classic;html=1;" parent="1" source="EPPNhnt_aKyvmOVJGKWz-10" target="EPPNhnt_aKyvmOVJGKWz-22" edge="1">
          <mxGeometry width="50" height="50" relative="1" as="geometry">
            <mxPoint x="170" y="440" as="sourcePoint" />
            <mxPoint x="292.41458709316294" y="323.5231397929715" as="targetPoint" />
          </mxGeometry>
        </mxCell>
        <mxCell id="EPPNhnt_aKyvmOVJGKWz-31" value="" style="endArrow=classic;html=1;" parent="1" source="EPPNhnt_aKyvmOVJGKWz-12" target="EPPNhnt_aKyvmOVJGKWz-22" edge="1">
          <mxGeometry width="50" height="50" relative="1" as="geometry">
            <mxPoint x="323.71363078421723" y="286.5342877002695" as="sourcePoint" />
            <mxPoint x="302.41458709316294" y="333.5231397929715" as="targetPoint" />
          </mxGeometry>
        </mxCell>
        <mxCell id="EPPNhnt_aKyvmOVJGKWz-42" value="" style="endArrow=classic;html=1;" parent="1" source="EPPNhnt_aKyvmOVJGKWz-22" target="EPPNhnt_aKyvmOVJGKWz-28" edge="1">
          <mxGeometry width="50" height="50" relative="1" as="geometry">
            <mxPoint x="350" y="600" as="sourcePoint" />
            <mxPoint x="400" y="550" as="targetPoint" />
          </mxGeometry>
        </mxCell>
        <mxCell id="EPPNhnt_aKyvmOVJGKWz-43" value="" style="endArrow=classic;html=1;" parent="1" source="EPPNhnt_aKyvmOVJGKWz-22" target="EPPNhnt_aKyvmOVJGKWz-26" edge="1">
          <mxGeometry width="50" height="50" relative="1" as="geometry">
            <mxPoint x="298.83232949560374" y="458.0321711130282" as="sourcePoint" />
            <mxPoint x="218.11384162219224" y="432.1381661217173" as="targetPoint" />
          </mxGeometry>
        </mxCell>
        <mxCell id="EPPNhnt_aKyvmOVJGKWz-44" value="" style="ellipse;whiteSpace=wrap;html=1;aspect=fixed;fillColor=#d5e8d4;strokeColor=#82b366;" parent="1" vertex="1">
          <mxGeometry x="430" y="470" width="80" height="80" as="geometry" />
        </mxCell>
        <mxCell id="EPPNhnt_aKyvmOVJGKWz-45" value="Clase" style="text;html=1;strokeColor=none;fillColor=none;align=center;verticalAlign=middle;whiteSpace=wrap;rounded=0;" parent="1" vertex="1">
          <mxGeometry x="451" y="500" width="40" height="20" as="geometry" />
        </mxCell>
        <mxCell id="EPPNhnt_aKyvmOVJGKWz-46" value="" style="ellipse;whiteSpace=wrap;html=1;aspect=fixed;fillColor=#d5e8d4;strokeColor=#82b366;" parent="1" vertex="1">
          <mxGeometry x="430" y="370" width="80" height="80" as="geometry" />
        </mxCell>
        <mxCell id="EPPNhnt_aKyvmOVJGKWz-47" value="Departamento" style="text;html=1;strokeColor=none;fillColor=none;align=center;verticalAlign=middle;whiteSpace=wrap;rounded=0;" parent="1" vertex="1">
          <mxGeometry x="452" y="400" width="40" height="20" as="geometry" />
        </mxCell>
        <mxCell id="EPPNhnt_aKyvmOVJGKWz-48" value="" style="endArrow=classic;html=1;" parent="1" source="EPPNhnt_aKyvmOVJGKWz-22" target="EPPNhnt_aKyvmOVJGKWz-46" edge="1">
          <mxGeometry width="50" height="50" relative="1" as="geometry">
            <mxPoint x="588.8323294956037" y="448.0321711130282" as="sourcePoint" />
            <mxPoint x="700" y="550" as="targetPoint" />
          </mxGeometry>
        </mxCell>
        <mxCell id="EPPNhnt_aKyvmOVJGKWz-49" value="" style="endArrow=classic;html=1;" parent="1" source="EPPNhnt_aKyvmOVJGKWz-22" target="EPPNhnt_aKyvmOVJGKWz-44" edge="1">
          <mxGeometry width="50" height="50" relative="1" as="geometry">
            <mxPoint x="588.8323294956037" y="471.9678288869718" as="sourcePoint" />
            <mxPoint x="518.1138416221922" y="432.1381661217173" as="targetPoint" />
          </mxGeometry>
        </mxCell>
      </root>
    </mxGraphModel>
  </diagram>
</mxfile>
